<svg xmlns="http://www.w3.org/2000/svg" viewBox="0 0 32 32"><defs><style>.a{fill:#0f0f00;}.b{fill:#f0f0ff;}</style></defs><rect class="a" width="32" height="32" rx="7"/><rect class="b" x="16.42" y="16.42" width="5.83" height="5.83" rx="0.83"/><path class="b" d="M17.46,15.58H21.2a1,1,0,0,0,.74-1.78L18.2,10.06a1,1,0,0,0-1.78.74v3.74A1,1,0,0,0,17.46,15.58Z"/><path class="b" d="M13.8,10.06,10.06,13.8a1,1,0,0,0-.31.65h0v6.86a.89.89,0,0,0,.83.93h4.17a.89.89,0,0,0,.83-.93V10.68h0A1,1,0,0,0,13.8,10.06Z"/></svg>