<?xml version="1.0" encoding="utf-8"?>
<!-- Generator: Adobe Illustrator 26.1.0, SVG Export Plug-In . SVG Version: 6.00 Build 0)  -->
<svg version="1.1" id="Livello_1" xmlns="http://www.w3.org/2000/svg" xmlns:xlink="http://www.w3.org/1999/xlink" x="0px" y="0px"
	 viewBox="0 0 128 128" style="enable-background:new 0 0 128 128;" xml:space="preserve">
<style type="text/css">
	.st0{fill:#0F0F00;}
	.st1{fill:#F0F0FF;}
	.st2{fill:#12FF62;}
	.st3{fill:#7D64FF;}
</style>
<g>
	<rect class="st0" width="128" height="128"/>
	<g>
		<path class="st2" d="M85.7,65.7H69c-1.8,0-3.3,1.5-3.3,3.3v16.7c0,1.8,1.5,3.3,3.3,3.3h16.7c1.8,0,3.3-1.5,3.3-3.3V69
			C89,67.2,87.5,65.7,85.7,65.7z"/>
		<path class="st2" d="M69.8,62.3h15c3.7,0,5.6-4.5,3-7.1l-15-15c-2.6-2.6-7.1-0.8-7.1,3v15C65.7,60.5,67.5,62.3,69.8,62.3z"/>
		<path class="st2" d="M55.2,40.2l-15,15c-0.8,0.8-1.1,1.7-1.2,2.6l0,0v27.5c0,2.1,1.5,3.7,3.3,3.7H59c1.8,0,3.3-1.7,3.3-3.7V58.2
			v-15v-0.5l0,0C62,39.3,57.7,37.7,55.2,40.2z"/>
	</g>
</g>
</svg>
