<svg xmlns="http://www.w3.org/2000/svg" viewBox="0 0 48 48"><defs><style>.a{fill:#0f0f00;}.b{fill:#7d64ff;}</style></defs><rect class="a" width="48" height="48" rx="24"/><rect class="b" x="24.63" y="24.63" width="8.75" height="8.75" rx="1.25"/><path class="b" d="M26.19,23.38h5.62a1.57,1.57,0,0,0,1.1-2.68L27.3,15.09a1.56,1.56,0,0,0-2.67,1.1v5.62A1.57,1.57,0,0,0,26.19,23.38Z"/><path class="b" d="M20.7,15.09,15.09,20.7a1.54,1.54,0,0,0-.46,1h0V32a1.33,1.33,0,0,0,1.26,1.4h6.25A1.33,1.33,0,0,0,23.38,32V16h0A1.57,1.57,0,0,0,20.7,15.09Z"/></svg>