<svg xmlns="http://www.w3.org/2000/svg" viewBox="0 0 64 64"><defs><style>.a{fill:#0f0f00;}.b{fill:#7d64ff;}</style></defs><rect class="a" x="0.29" y="0.29" width="63.41" height="63.41" rx="31.71"/><rect class="b" x="32.83" y="32.83" width="11.56" height="11.56" rx="1.65"/><path class="b" d="M34.89,31.17h7.42a2.07,2.07,0,0,0,1.46-3.53l-7.41-7.41a2.07,2.07,0,0,0-3.53,1.46v7.42A2.06,2.06,0,0,0,34.89,31.17Z"/><path class="b" d="M27.64,20.23l-7.41,7.41a2.07,2.07,0,0,0-.61,1.3h0v13.6a1.74,1.74,0,0,0,1.65,1.84h8.25a1.74,1.74,0,0,0,1.65-1.84V21.46h0A2.07,2.07,0,0,0,27.64,20.23Z"/></svg>