<svg xmlns="http://www.w3.org/2000/svg" viewBox="0 0 64 64"><defs><style>.a{fill:#12ff62;}.b{fill:#0f0f00;}</style></defs><rect class="a" width="64" height="64"/><rect class="b" x="32.83" y="32.83" width="11.67" height="11.67" rx="1.67"/><path class="b" d="M34.92,31.17h7.49a2.09,2.09,0,0,0,1.47-3.57L36.4,20.12a2.09,2.09,0,0,0-3.57,1.47v7.49A2.1,2.1,0,0,0,34.92,31.17Z"/><path class="b" d="M27.6,20.12,20.12,27.6a2,2,0,0,0-.61,1.31h0V42.64a1.77,1.77,0,0,0,1.67,1.86H29.5a1.77,1.77,0,0,0,1.67-1.86V21.36h0A2.08,2.08,0,0,0,27.6,20.12Z"/></svg>