<?xml version="1.0" encoding="utf-8"?>
<!-- Generator: Adobe Illustrator 26.1.0, SVG Export Plug-In . SVG Version: 6.00 Build 0)  -->
<svg version="1.1" id="Livello_1" xmlns="http://www.w3.org/2000/svg" xmlns:xlink="http://www.w3.org/1999/xlink" x="0px" y="0px"
	 viewBox="0 0 512 512" style="enable-background:new 0 0 512 512;" xml:space="preserve">
<style type="text/css">
	.st0{fill:#0F0F00;}
	.st1{fill:#F0F0FF;}
	.st2{fill:#12FF62;}
	.st3{fill:#7D64FF;}
</style>
<g>
	<rect class="st0" width="512" height="512"/>
	<g>
		<path class="st3" d="M342.7,262.7H276c-7.4,0-13.3,6-13.3,13.3v66.7c0,7.4,6,13.3,13.3,13.3h66.7c7.4,0,13.3-6,13.3-13.3V276
			C356,268.6,350,262.7,342.7,262.7z"/>
		<path class="st3" d="M279.4,249.3h59.9c14.9,0,22.3-18,11.8-28.5l-59.9-59.9c-10.5-10.5-28.5-3.1-28.5,11.8v59.9
			C262.7,241.9,270.1,249.3,279.4,249.3z"/>
		<path class="st3" d="M220.8,160.9l-59.9,59.9c-3.1,3.1-4.6,6.8-4.9,10.4l-0.1,0v109.8c0,8.2,6,14.9,13.3,14.9H236
			c7.4,0,13.3-6.7,13.3-14.9V232.6v-59.9v-1.9l-0.1,0.1C247.9,157.3,230.9,150.8,220.8,160.9z"/>
	</g>
</g>
</svg>
